<?xml version="1.0" standalone="no"?>
<!DOCTYPE svg PUBLIC "-//W3C//DTD SVG 20010904//EN"
 "http://www.w3.org/TR/2001/REC-SVG-20010904/DTD/svg10.dtd">
<svg version="1.0" xmlns="http://www.w3.org/2000/svg"
 width="438.000000pt" height="438.000000pt" viewBox="0 0 438.000000 438.000000"
 preserveAspectRatio="xMidYMid meet">
<metadata>
Created by potrace 1.14, written by Peter Selinger 2001-2017
</metadata>
<g transform="translate(0.000000,438.000000) scale(0.100000,-0.100000)"
fill="#000000" stroke="none">
<path d="M2222 3888 c-12 -29 -35 -93 -52 -143 -66 -194 -128 -371 -134 -385
-3 -8 -17 -49 -30 -90 -14 -41 -55 -160 -91 -265 -37 -104 -72 -208 -77 -230
-6 -22 -14 -44 -18 -50 -5 -5 -12 -26 -18 -45 -6 -19 -27 -80 -47 -135 -20
-55 -45 -129 -57 -165 -11 -36 -26 -78 -33 -95 -7 -16 -31 -84 -53 -150 -23
-66 -57 -165 -76 -220 -20 -55 -57 -161 -82 -235 -25 -74 -50 -144 -54 -155
-9 -18 -42 -114 -120 -345 -16 -47 -49 -143 -74 -214 -25 -71 -43 -133 -40
-138 7 -10 1434 -11 1434 0 0 9 -39 29 -141 73 l-67 29 -511 0 c-281 1 -512 4
-515 8 -4 7 134 427 153 467 6 11 28 76 50 145 40 123 120 357 281 820 45 129
85 246 90 260 4 14 23 63 40 110 17 47 50 137 72 200 63 182 59 179 95 53 17
-59 56 -190 87 -291 31 -101 58 -193 60 -205 3 -12 44 -150 91 -307 48 -157
93 -305 100 -330 7 -25 22 -74 33 -110 11 -36 38 -126 60 -200 98 -330 177
-586 210 -675 l18 -50 284 -3 c156 -1 287 1 292 6 7 7 -70 244 -103 317 -11
25 -59 160 -155 435 -41 118 -88 248 -105 289 -16 40 -29 77 -29 82 0 4 -5 20
-11 36 -18 45 -140 395 -151 433 -5 19 -16 49 -23 65 -7 17 -28 73 -45 125
-115 336 -218 629 -240 675 -14 30 -97 266 -105 298 -4 15 -11 27 -15 27 -4 0
-11 15 -14 33 -3 17 -28 91 -54 162 -38 105 -51 131 -68 133 -17 2 -25 -7 -42
-50z"/>
</g>
</svg>
